<?xml version="1.0" encoding="UTF-8" standalone="no"?>
<!-- Created with Inkscape (http://www.inkscape.org/) -->

<svg
   xmlns:dc="http://purl.org/dc/elements/1.1/"
   xmlns:cc="http://creativecommons.org/ns#"
   xmlns:rdf="http://www.w3.org/1999/02/22-rdf-syntax-ns#"
   xmlns:svg="http://www.w3.org/2000/svg"
   xmlns="http://www.w3.org/2000/svg"
   xmlns:sodipodi="http://sodipodi.sourceforge.net/DTD/sodipodi-0.dtd"
   xmlns:inkscape="http://www.inkscape.org/namespaces/inkscape"
   width="186.54156mm"
   height="158.16376mm"
   viewBox="0 0 186.54156 158.16376"
   version="1.1"
   id="svg8"
   inkscape:version="0.92.3 (2405546, 2018-03-11)"
   sodipodi:docname="logo.svg">
  <defs
     id="defs2" />
  <sodipodi:namedview
     id="base"
     pagecolor="#ffffff"
     bordercolor="#666666"
     borderopacity="1.0"
     inkscape:pageopacity="0.0"
     inkscape:pageshadow="2"
     inkscape:zoom="0.7"
     inkscape:cx="572.24529"
     inkscape:cy="440.01487"
     inkscape:document-units="mm"
     inkscape:current-layer="layer1"
     showgrid="false"
     inkscape:window-width="2560"
     inkscape:window-height="1025"
     inkscape:window-x="1920"
     inkscape:window-y="27"
     inkscape:window-maximized="1"
     fit-margin-top="0"
     fit-margin-left="0"
     fit-margin-right="0"
     fit-margin-bottom="0" />
  <metadata
     id="metadata5">
    <rdf:RDF>
      <cc:Work
         rdf:about="">
        <dc:format>image/svg+xml</dc:format>
        <dc:type
           rdf:resource="http://purl.org/dc/dcmitype/StillImage" />
        <dc:title></dc:title>
      </cc:Work>
    </rdf:RDF>
  </metadata>
  <g
     inkscape:label="Capa 1"
     inkscape:groupmode="layer"
     id="layer1"
     transform="translate(-15.331303,-101.91487)">
    <g
       style="overflow:visible;opacity:1"
       id="g30"
       transform="matrix(0.42607659,0,0,0.41873698,43.039601,115.89999)">
      <path
         id="path16"
         class="color c1"
         d="M 154.474,0 C 69.296,0 0,69.297 0,154.473 c 0,85.179 69.296,154.472 154.474,154.472 85.177,0 154.473,-69.293 154.473,-154.472 C 308.947,69.297 239.651,0 154.474,0 Z"
         inkscape:connector-curvature="0"
         style="fill:#fddb3a" />
      <path
         id="path18"
         class="color c2"
         d="m 154.474,14.712 c -77.065,0 -139.762,62.696 -139.762,139.762 0,77.064 62.697,139.762 139.762,139.762 77.064,0 139.761,-62.697 139.761,-139.762 0,-77.066 -62.696,-139.762 -139.761,-139.762 z"
         inkscape:connector-curvature="0"
         style="fill:#52575d" />
      <path
         id="path20"
         class="color c1"
         d="M 154.474,286.346 C 81.757,286.346 22.6,227.188 22.6,154.473 22.6,81.758 81.756,22.601 154.474,22.601 c 72.714,0 131.871,59.157 131.871,131.872 0,72.715 -59.157,131.873 -131.871,131.873 z m 0,-261.133 c -71.275,0 -129.262,57.985 -129.262,129.261 0,71.274 57.987,129.262 129.262,129.262 71.273,0 129.259,-57.986 129.259,-129.262 0,-71.276 -57.985,-129.261 -129.259,-129.261 z"
         inkscape:connector-curvature="0"
         style="fill:#fddb3a" />
    </g>
    <g
       style="overflow:visible;opacity:1"
       id="g54"
       transform="matrix(0.47556478,0,0,0.45040368,16.843264,196.38701)">
      <path
         id="path34"
         class="color c1"
         d="M 90.943825,82.842364 C 88.474906,67.677449 86.003992,52.513374 83.533077,37.347621 56.443831,39.350312 29.603073,41.929397 2.7762858,45.105009 0.29738769,45.407888 -0.83228728,47.195796 0.68958051,48.385497 7.7739998,53.906113 14.740661,59.507273 21.559627,65.167163 c 0.639684,0.527731 0.820312,1.225778 0.493983,1.863418 -3.484827,6.784149 -6.818965,13.613604 -9.988442,20.462356 -0.678603,1.464893 1.274377,2.866022 3.586618,2.580763 25.012521,-2.94321 50.042007,-5.346944 75.292039,-7.231336 z"
         inkscape:connector-curvature="0"
         style="fill:#fddb3a;stroke-width:0.91502798" />
      <path
         id="path36"
         class="color c2"
         d="m 42.044467,27.073234 c 3.470856,15.531557 6.938719,31.065631 10.409575,46.600544 13.428363,2.849242 26.752939,5.905717 39.957762,9.168586 C 89.943883,67.677449 87.471971,52.513374 85.002054,37.347621 70.810263,33.70049 56.484747,30.275695 42.044467,27.073234 Z"
         inkscape:connector-curvature="0"
         style="fill:#52575d;stroke-width:0.91502798" />
      <path
         id="path38"
         class="color c1"
         d="m 295.22539,82.842364 c 2.47291,-15.164915 4.94083,-30.32899 7.41374,-45.494743 27.08725,2.002691 53.929,4.581776 80.75479,7.757388 2.4789,0.302879 3.60957,2.090787 2.0907,3.280488 -7.08841,5.520616 -14.05308,11.121776 -20.87104,16.781666 -0.64069,0.527731 -0.82231,1.225778 -0.49698,1.863418 3.48882,6.784149 6.81996,13.613604 9.98744,20.462356 0.6826,1.464893 -1.27437,2.866022 -3.58661,2.580763 -25.01352,-2.94321 -50.04401,-5.346944 -75.29204,-7.231336 z"
         inkscape:connector-curvature="0"
         style="fill:#fddb3a;stroke-width:0.91502798"
         inkscape:connector-avoid="true" />
      <path
         id="path40"
         class="color c2"
         d="m 344.13772,27.073234 c -3.46986,15.533235 -6.94271,31.067309 -10.41058,46.600544 -13.42936,2.85092 -26.75393,5.907395 -39.96075,9.168586 2.47191,-15.164915 4.94283,-30.32899 7.41474,-45.493065 14.19179,-3.648809 28.51731,-7.073604 42.95659,-10.276065 z"
         inkscape:connector-curvature="0"
         style="fill:#52575d;stroke-width:0.91502798" />
      <path
         id="path42"
         class="color c1"
         d="m 335.19512,73.673778 c -94.75797,-8.577091 -189.45507,-8.577091 -284.209056,0 -3.469859,-15.534074 -6.939718,-31.068987 -10.409576,-46.600544 101.638812,-9.244095 203.392392,-9.244095 305.029212,0 -3.46986,15.533235 -6.94271,31.067309 -10.41058,46.600544 z"
         inkscape:connector-curvature="0"
         style="fill:#fddb3a;stroke-width:0.91502798" />
      <path
         style="opacity:0;fill:none;stroke:#000000;stroke-width:0.58157128px;stroke-linecap:butt;stroke-linejoin:miter;stroke-opacity:1"
         d="m 28.152511,172.17597 c 103.324649,-22.183 209.390049,-19.12158 280.181259,-12.65215 51.13307,4.67293 83.86256,11.12391 83.86256,11.12391"
         id="path200"
         inkscape:connector-curvature="0"
         sodipodi:nodetypes="csc" />
      <path
         style="font-style:normal;font-variant:normal;font-weight:normal;font-stretch:normal;font-size:22.86739349px;line-height:1.25;font-family:'Gravitas One';-inkscape-font-specification:'Gravitas One';letter-spacing:0px;word-spacing:0px;fill:#52575d;fill-opacity:1;stroke:none;stroke-width:0.94861299"
         d="m 432.375,747.9082 c -1.70783,-0.0292 -3.32318,0.17989 -4.8457,0.62696 -1.50948,0.43377 -2.83669,1.08636 -3.98047,1.95898 -1.13073,0.85932 -2.03405,1.93256 -2.70899,3.21875 -0.66209,1.28642 -1.00555,2.75957 -1.03125,4.42188 -0.0412,2.66239 0.8294,4.93584 2.61133,6.81835 1.79498,1.86923 4.57272,3.34964 8.33203,4.44141 1.68768,0.50204 3.15092,0.95182 4.39063,1.35156 1.25255,0.39997 2.28755,0.79697 3.10351,1.18946 0.81617,0.37897 1.41875,0.77524 1.81055,1.1875 0.40485,0.39896 0.60364,0.85558 0.5957,1.36914 -0.008,0.48653 -0.17438,0.87419 -0.5,1.16601 -0.31256,0.27853 -0.70124,0.49613 -1.16601,0.65039 -0.46457,0.14075 -0.95902,0.2323 -1.48633,0.27735 -0.5271,0.0315 -1.00399,0.0444 -1.42773,0.0371 -1.45101,-0.0249 -2.78298,-0.20343 -3.99805,-0.53516 -1.21486,-0.34524 -2.32576,-0.78954 -3.33203,-1.33398 -1.00628,-0.54445 -1.91541,-1.16777 -2.72657,-1.8711 -0.81094,-0.71684 -1.53177,-1.46069 -2.1621,-2.22851 -0.63034,-0.76782 -1.17722,-1.53387 -1.64063,-2.29883 -0.4632,-0.77848 -0.84937,-1.50025 -1.16016,-2.16797 l -1.29101,-0.0234 -0.17578,11.41406 1.44336,0.0234 3.33398,-3.81445 c 0.92631,0.73233 1.82938,1.37588 2.70703,1.93164 0.87787,0.54225 1.76283,0.99651 2.65625,1.36328 0.90627,0.367 1.84044,0.64766 2.80078,0.83985 0.96035,0.19218 1.98666,0.29771 3.07813,0.3164 1.99032,0.0341 3.74749,-0.22005 5.27148,-0.76172 1.5242,-0.55518 2.80041,-1.31791 3.83008,-2.28711 1.04252,-0.96898 1.83134,-2.10412 2.36524,-3.40625 0.5339,-1.30213 0.81121,-2.69096 0.83398,-4.16406 0.0196,-1.27038 -0.11033,-2.39298 -0.39063,-3.37109 -0.26745,-0.9779 -0.65905,-1.85135 -1.17382,-2.61719 -0.51478,-0.76584 -1.14076,-1.43119 -1.87696,-1.99805 -0.72315,-0.58015 -1.53639,-1.09488 -2.4414,-1.54297 -0.89196,-0.46137 -1.85575,-0.86893 -2.89063,-1.22461 -1.03467,-0.36919 -2.10836,-0.71885 -3.2207,-1.04882 -2.62108,-0.77488 -4.59339,-1.52632 -5.91797,-2.25196 -1.31153,-0.73893 -1.96113,-1.49333 -1.94922,-2.26367 0.007,-0.47301 0.17306,-0.83465 0.49805,-1.08594 0.3252,-0.26479 0.70802,-0.4542 1.14648,-0.56836 0.45131,-0.11393 0.90667,-0.17409 1.36914,-0.17968 0.46269,-0.0191 0.84334,-0.0266 1.13868,-0.0215 1.55373,0.0266 3.01964,0.24839 4.40039,0.66407 1.38074,0.41567 2.63714,0.9707 3.76953,1.66601 1.13238,0.69531 2.136,1.51114 3.00781,2.44531 0.87181,0.93418 1.58042,1.93829 2.12891,3.01563 l 1.21484,0.0215 0.13477,-8.81836 -1.32813,-0.0234 -2.95508,2.91015 c -0.5962,-0.48335 -1.29474,-0.92625 -2.09765,-1.33203 -0.80271,-0.41929 -1.65715,-0.7787 -2.56446,-1.07812 -0.90731,-0.29943 -1.84218,-0.54008 -2.80273,-0.71875 -0.94771,-0.17845 -1.8573,-0.27411 -2.73047,-0.28907 z m -20.36523,0.49805 -29.83985,0.12305 0.006,1.58203 3.3711,-0.0137 0.0937,25.54492 -3.37109,0.0137 0.006,1.60156 30.76563,-0.125 -0.041,-10.82812 -1.33008,0.006 -5.55078,9.24804 -7.18555,0.0293 -0.0449,-11.90039 2.91016,-0.0117 2.5664,6.7207 1.25196,-0.006 -0.0547,-15.00195 -1.25195,0.004 -2.51758,6.70117 -2.91016,0.0117 -0.0449,-12.0625 6.51172,-0.0273 5.38672,8.26954 1.30859,-0.004 z m -51.07422,0.57422 -29.82227,1.08203 0.0527,1.58008 3.36914,-0.12305 0.83593,25.53125 -3.36914,0.12305 0.0527,1.59961 30.74609,-1.11524 -0.35547,-10.82031 -1.32812,0.0488 -5.28125,9.42187 -7.18164,0.26172 -0.38868,-11.89453 2.90626,-0.10547 2.76171,6.63477 1.25196,-0.0449 -0.49024,-14.99414 -1.25195,0.0449 -2.32227,6.77929 -2.9082,0.10547 -0.39453,-12.05664 6.50781,-0.23633 5.62305,8.09375 1.31055,-0.0488 z m 91.39843,0.0762 -0.38867,11.58984 1.32813,0.0488 5.05273,-9.83593 2.77149,0.10351 -0.85352,25.53125 -3.34961,-0.125 -0.0547,1.60156 20.00391,0.74024 0.0527,-1.60156 -3.36914,-0.12305 0.85352,-25.53125 2.79297,0.10351 4.36133,10.1836 1.34765,0.0508 0.38867,-11.5918 z m -126.83593,0.82031 -1.32813,0.0801 -2.16211,3.86719 c -1.51333,-1.33007 -3.13233,-2.26107 -4.85937,-2.79297 -1.72704,-0.5319 -3.57825,-0.73853 -5.55274,-0.61914 -2.71812,0.16435 -5.07395,0.71357 -7.06836,1.64648 -1.99513,0.91943 -3.641,2.12907 -4.93554,3.62891 -1.28246,1.48557 -2.21096,3.21283 -2.78516,5.18359 -0.5742,1.97077 -0.80001,4.07637 -0.67773,6.31641 0.11638,2.13209 0.60688,4.05807 1.47265,5.7793 0.86578,1.72123 2.03921,3.18027 3.51953,4.37695 1.49241,1.18241 3.25844,2.06377 5.29688,2.64453 2.03843,0.58077 4.2883,0.79728 6.75,0.64844 2.52581,-0.15272 4.64701,-0.6335 6.36523,-1.44141 1.71823,-0.8079 3.10196,-1.85887 4.15039,-3.15429 1.04843,-1.29542 1.79746,-2.78209 2.2461,-4.46094 0.46145,-1.67963 0.69074,-3.47393 0.68945,-5.38281 l -1.69141,0.10156 c -0.0591,1.98023 -0.33277,3.68944 -0.82031,5.12695 -0.47471,1.43674 -1.11732,2.6258 -1.92773,3.56836 -0.81042,0.94256 -1.76089,1.65681 -2.85352,2.14258 -1.09336,0.47227 -2.28232,0.74669 -3.56445,0.82422 -0.65389,0.0395 -1.26016,-0.004 -1.82031,-0.13282 -0.5609,-0.14209 -1.07799,-0.4016 -1.54883,-0.77929 -0.45803,-0.37847 -0.87201,-0.89427 -1.24219,-1.54883 -0.35736,-0.65533 -0.67808,-1.49035 -0.96484,-2.50195 -0.27395,-1.01239 -0.50723,-2.21686 -0.69922,-3.61328 -0.17918,-1.3972 -0.31901,-3.02044 -0.41992,-4.86915 -0.0965,-1.76774 -0.10965,-3.28143 -0.0371,-4.54492 0.0854,-1.26426 0.22662,-2.33044 0.42382,-3.19531 0.20929,-0.87913 0.47405,-1.57744 0.79297,-2.09766 0.31893,-0.52021 0.66927,-0.92074 1.05274,-1.20117 0.38273,-0.29391 0.7837,-0.48702 1.20312,-0.58008 0.43151,-0.10732 0.86681,-0.17481 1.30274,-0.20117 0.91031,-0.055 1.88007,0.062 2.91211,0.35157 1.04412,0.27533 2.05865,0.80997 3.04101,1.60351 0.99445,0.77928 1.91986,1.85305 2.7793,3.22266 0.87226,1.36883 1.59905,3.11279 2.17773,5.23047 l 1.5,-0.0918 z m 161.39648,0.53516 -0.0781,1.58008 3.36718,0.17969 -1.23437,25.51367 -3.36719,-0.17969 -0.0762,1.59961 19.98828,1.07031 0.0781,-1.59961 -3.34766,-0.17969 1.23437,-25.51171 3.34766,0.17773 0.0762,-1.57812 z m 24.17578,1.24805 -0.10351,1.57812 3.36328,0.24219 -1.5918,24.33398 c -0.0335,0.51242 -0.3376,0.81421 -0.91016,0.90821 -0.57167,0.0805 -1.41463,0.0808 -2.52929,0 l -0.10352,1.59765 8.35938,0.60742 0.10351,-1.59961 c -1.12747,-0.0817 -1.96852,-0.20907 -2.52343,-0.38476 -0.54211,-0.17476 -0.79291,-0.54498 -0.75586,-1.11133 l 1.28906,-19.72265 5.57617,23.08398 3.53711,0.25781 8.58398,-22.32226 -1.38867,21.23828 -3.36328,-0.24414 -0.10351,1.59765 19.42968,1.40821 0.10352,-1.59766 -3.36328,-0.24414 1.66797,-25.48633 3.36328,0.24414 0.10156,-1.57812 -16.06641,-1.16407 -4.50976,11.70508 -2.75391,-12.23047 z m -220.45508,0.89648 -19.95507,1.62891 0.11523,1.57617 3.36133,-0.27344 1.87695,25.46875 -3.35937,0.27539 0.11718,1.5957 19.95508,-1.6289 -0.11718,-1.5957 -3.34376,0.27148 -1.87695,-25.46875 3.3418,-0.27344 z m -35.12304,3.19141 c -0.78653,0.008 -1.61881,0.0582 -2.49414,0.15039 l -21.90821,2.30664 0.15039,1.57422 3.35352,-0.35352 2.41797,25.41992 -3.35547,0.35352 0.15234,1.59375 19.91602,-2.09766 -0.15234,-1.59375 -3.33594,0.35156 -1.13672,-11.96484 c 0.62615,-0.066 1.17156,-0.0279 1.63672,0.11328 0.47794,0.13983 0.8812,0.45018 1.21094,0.93164 0.32845,0.46801 0.59962,1.1334 0.81054,1.99414 0.2237,0.8594 0.4008,1.97388 0.53125,3.34571 0.11895,1.25078 0.34413,2.34216 0.67774,3.27148 0.3336,0.92932 0.8254,1.68589 1.47461,2.26953 0.66198,0.5823 1.50577,0.98143 2.5332,1.19922 1.02871,0.23124 2.29876,0.26822 3.80664,0.10938 1.57177,-0.16557 2.85552,-0.42975 3.85352,-0.79297 0.99927,-0.34978 1.77343,-0.83866 2.32031,-1.4668 0.55966,-0.62948 0.90969,-1.41473 1.05273,-2.35351 0.15583,-0.94013 0.17154,-2.07478 0.0449,-3.40626 l -0.0625,-0.64648 -1.60937,0.16992 c 0.15476,1.62737 0.17623,2.88078 0.0664,3.76172 -0.10983,0.88095 -0.37518,1.34425 -0.79688,1.38867 -0.25557,0.0269 -0.45047,-0.0606 -0.58594,-0.26367 -0.12269,-0.20442 -0.20449,-0.51666 -0.24414,-0.93359 l -0.0664,-0.70508 c -0.0205,-0.21519 -0.0373,-0.51939 -0.0488,-0.91211 -0.023,-0.37793 -0.0467,-0.70172 -0.0723,-0.9707 -0.0141,-0.28378 -0.0391,-0.61974 -0.0762,-1.00977 -0.13429,-1.41217 -0.48123,-2.55127 -1.04102,-3.41601 -0.56105,-0.8782 -1.38642,-1.532 -2.47265,-1.96094 -1.07473,-0.44373 -2.43282,-0.68819 -4.07617,-0.73242 -1.64463,-0.0577 -3.61849,0.029 -5.91992,0.25781 2.56723,-0.28402 4.6914,-0.67848 6.37304,-1.18164 1.69315,-0.51796 3.02354,-1.1328 3.98828,-1.84571 0.97752,-0.71425 1.6341,-1.53059 1.97266,-2.44921 0.35134,-0.91997 0.4753,-1.9384 0.36914,-3.05469 -0.1215,-1.27768 -0.47656,-2.36105 -1.06445,-3.25 -0.57512,-0.8903 -1.36402,-1.58814 -2.36719,-2.09375 -0.99168,-0.5204 -2.19138,-0.85536 -3.59961,-1.00586 -0.69773,-0.0759 -1.44003,-0.1097 -2.22656,-0.10156 z m 309.82812,0.17578 -12.10742,25.05078 c -0.18693,0.37583 -0.56711,0.6104 -1.14258,0.70508 -0.56268,0.0959 -1.36239,0.0944 -2.39843,-0.004 l -0.13672,1.5957 8.76757,0.83204 0.13672,-1.59571 c -0.51162,-0.0485 -0.98344,-0.10759 -1.41601,-0.17578 -0.41979,-0.067 -0.78757,-0.14844 -1.10156,-0.24609 -0.30006,-0.1099 -0.53329,-0.22688 -0.70313,-0.35156 -0.1559,-0.13694 -0.22708,-0.29982 -0.21094,-0.48829 0.006,-0.0673 0.017,-0.12098 0.0332,-0.16015 l 2.74804,-5.66211 8.44141,0.80078 2.05078,7.2168 -3.70117,-0.35157 -0.13672,1.59571 21.75586,2.06445 0.13672,-1.5957 -3.33789,-0.31641 -9.25586,-28.11523 z m -316.52539,2.07226 c 0.30446,0.0121 0.58768,0.0489 0.85156,0.10938 0.5265,0.10755 0.97712,0.36656 1.35157,0.77539 0.38595,0.39403 0.69847,0.96573 0.9375,1.71484 0.23774,0.73566 0.41351,1.70145 0.52734,2.89844 0.11383,1.19699 0.12515,2.19463 0.0332,2.99219 -0.0932,0.78411 -0.29093,1.41631 -0.59375,1.89648 -0.29003,0.47883 -0.68321,0.83186 -1.17773,1.06055 -0.49452,0.22868 -1.0873,0.37848 -1.77734,0.45117 l -1.12696,-11.86133 c 0.34503,-0.0363 0.67016,-0.0492 0.97461,-0.0371 z m 341.57422,0.34766 -1.19922,11.52734 1.32227,0.15235 5.72656,-9.41602 2.75781,0.31836 -2.64062,25.39453 -3.33203,-0.38476 -0.16602,1.59375 19.89649,2.29101 0.16601,-1.59179 -3.35156,-0.38672 2.64062,-25.39453 2.77735,0.32031 3.63672,10.49414 1.33984,0.1543 1.19922,-11.52735 z m -370.68555,1.53906 c -0.82358,-0.0113 -1.70439,0.0453 -2.64062,0.17188 l -22.0293,2.97851 0.19141,1.56836 3.34375,-0.45117 3.09375,25.33789 -3.34375,0.45117 0.19336,1.58985 19.85156,-2.68555 -0.19336,-1.58789 -3.32422,0.44922 -1.03125,-8.44531 5.13867,-0.69532 c 1.80877,-0.2446 3.38271,-0.67621 4.71875,-1.29297 1.34715,-0.63188 2.44303,-1.40578 3.28907,-2.32421 0.85713,-0.93357 1.46039,-1.9898 1.80859,-3.16797 0.3593,-1.19331 0.45632,-2.46628 0.29102,-3.82032 -0.16367,-1.34062 -0.53132,-2.55184 -1.10352,-3.63281 -0.5611,-1.09609 -1.33891,-2.00032 -2.33203,-2.71094 -0.99312,-0.71061 -2.20087,-1.20727 -3.62109,-1.49218 -0.71094,-0.14916 -1.47721,-0.22896 -2.30079,-0.24024 z m -7.42968,2.32422 c 0.51877,-0.006 0.98561,0.0894 1.39843,0.28906 0.56153,0.25113 1.04113,0.69111 1.44141,1.31836 0.41301,0.62553 0.7605,1.44959 1.04102,2.47461 0.27887,1.01162 0.50393,2.22125 0.67578,3.62891 0.1342,1.09931 0.17991,2.10845 0.13672,3.02734 -0.0305,0.91717 -0.17121,1.71992 -0.42383,2.40821 -0.23989,0.68656 -0.60007,1.24709 -1.07813,1.67968 -0.47969,0.41919 -1.08933,0.67939 -1.82812,0.7793 l -1.90039,-15.56641 c 0.18469,-0.025 0.36418,-0.037 0.53711,-0.0391 z m 425.28515,1.41016 c -0.42816,0.0129 -0.84556,0.0384 -1.25195,0.0781 -1.62392,0.14543 -3.08225,0.47028 -4.375,0.97461 -1.29275,0.50433 -2.42974,1.15872 -3.41016,1.96485 -0.98042,0.80612 -1.81957,1.728 -2.51757,2.76367 -0.68527,1.03741 -1.23877,2.16737 -1.66211,3.39062 -0.41061,1.225 -0.69713,2.5012 -0.86133,3.82813 -0.16586,1.34033 -0.20036,2.6583 -0.10156,3.95312 0.11152,1.29657 0.37326,2.53708 0.7832,3.72461 0.42267,1.18928 1.00823,2.30608 1.75976,3.34961 0.75154,1.04353 1.69147,1.98431 2.81836,2.82031 1.12689,0.836 2.45784,1.54275 3.99219,2.1211 1.53269,0.59175 3.28585,1.02239 5.25977,1.29297 1.97391,0.27057 3.77286,0.3268 5.39843,0.16797 1.62392,-0.14543 3.08225,-0.47029 4.375,-0.97461 1.30549,-0.50259 2.44927,-1.15677 3.42969,-1.96289 0.98042,-0.80613 1.81278,-1.72822 2.49805,-2.76563 0.68526,-1.03741 1.23392,-2.16758 1.64453,-3.39258 0.425,-1.23665 0.71861,-2.51878 0.88281,-3.8457 0.1642,-1.32693 0.19161,-2.63898 0.0801,-3.93555 -0.0988,-1.29482 -0.35373,-2.53707 -0.76367,-3.72461 -0.40994,-1.18753 -0.99066,-2.30217 -1.74219,-3.3457 -0.75153,-1.04353 -1.69631,-1.98452 -2.83594,-2.82227 -1.12689,-0.836 -2.45783,-1.54274 -3.99218,-2.12109 -1.5327,-0.59175 -3.28585,-1.0224 -5.25977,-1.29297 -1.48044,-0.20293 -2.86394,-0.2847 -4.14844,-0.24609 z m -74.65234,1.07226 2.88672,9.88282 -7.25196,-0.6875 z m 78.14648,0.53516 c 0.15524,-0.005 0.31687,0.003 0.48242,0.0254 0.66222,0.0908 1.18289,0.3728 1.56446,0.84766 0.3943,0.4766 0.66076,1.25577 0.79883,2.33789 0.13972,1.06871 0.1525,2.48801 0.0371,4.25781 -0.10101,1.75814 -0.31643,3.97142 -0.64649,6.63867 -0.33172,2.68066 -0.6642,4.89074 -0.99609,6.63086 -0.3175,1.72846 -0.67351,3.09862 -1.07032,4.10742 -0.39514,0.9954 -0.8427,1.66904 -1.33984,2.02344 -0.4844,0.35615 -1.05653,0.48921 -1.71875,0.39844 -0.66222,-0.0908 -1.19163,-0.37497 -1.58594,-0.85157 -0.38157,-0.47485 -0.64152,-1.24574 -0.78125,-2.31445 -0.12532,-1.08037 -0.13811,-2.49967 -0.0371,-4.25781 0.1154,-1.7698 0.34016,-3.99513 0.67188,-6.67578 0.33006,-2.66726 0.65321,-4.86529 0.9707,-6.59375 0.33189,-1.74012 0.68986,-3.10833 1.07227,-4.10547 0.3968,-1.0088 0.83591,-1.69268 1.32031,-2.04883 0.37286,-0.2658 0.7921,-0.40453 1.25781,-0.41992 z m -463.15429,0.44531 -8.66016,1.54297 0.25,1.56055 c 0.50648,-0.0903 0.9722,-0.15297 1.39648,-0.1875 0.4348,-0.0501 0.80844,-0.0691 1.12305,-0.0566 0.31462,0.0124 0.56413,0.0637 0.74805,0.15429 0.19443,0.075 0.30609,0.19981 0.33398,0.37305 0.0215,0.13327 0.021,0.24955 -0.002,0.34961 l -3.47656,13.5957 -8.4043,-12.75195 3.22852,-0.57617 -0.25,-1.5586 -20.28516,3.61719 0.25195,1.5586 2.90625,-0.51758 10.88477,15.31054 1.35547,8.41602 -3.32422,0.59375 0.2539,1.57813 19.75391,-3.52149 -0.25391,-1.58008 -3.32421,0.59375 -1.50391,-9.33594 4.125,-15.76757 c 0.0732,-0.27353 0.16576,-0.50275 0.2793,-0.6875 0.12619,-0.18702 0.30178,-0.34819 0.52734,-0.48438 0.23822,-0.13845 0.54631,-0.25521 0.92188,-0.34961 0.37342,-0.10772 0.8374,-0.21119 1.39453,-0.31054 z m 484.99218,1.89063 -0.23242,1.5625 3.33008,0.54883 -3.75781,25.23828 -3.33008,-0.54883 -0.23633,1.58203 19.77539,3.26172 0.23438,-1.58203 -3.31055,-0.54688 1.76758,-11.8789 c 0.62169,0.10253 1.1404,0.28473 1.55664,0.54492 0.42892,0.26228 0.74564,0.66918 0.94922,1.22265 0.20556,0.54012 0.30704,1.25563 0.30469,2.14454 0.0103,0.89099 -0.0863,2.01684 -0.28907,3.3789 -0.1849,1.24188 -0.22686,2.35785 -0.12695,3.3457 0.0999,0.98786 0.39461,1.85067 0.88281,2.5879 0.50089,0.73931 1.22214,1.35028 2.16406,1.83398 0.93994,0.49705 2.15716,0.86832 3.6543,1.11523 1.56058,0.25738 2.86909,0.34413 3.92188,0.25782 1.0508,-0.073 1.91588,-0.34219 2.5957,-0.80469 0.69251,-0.46041 1.22041,-1.12572 1.58398,-1.9961 0.37627,-0.86828 0.66255,-1.96315 0.85938,-3.28515 l 0.0957,-0.64063 -1.59961,-0.26367 c -0.24057,1.61578 -0.51838,2.83497 -0.83594,3.65821 -0.31755,0.82323 -0.68677,1.19991 -1.10546,1.13085 -0.25376,-0.0418 -0.42153,-0.17766 -0.50391,-0.41015 -0.0697,-0.2304 -0.0734,-0.55284 -0.0117,-0.9668 l 0.10352,-0.70117 c 0.0318,-0.21366 0.0888,-0.51146 0.17187,-0.89453 0.0684,-0.37181 0.12235,-0.69192 0.16211,-0.95899 0.0544,-0.27833 0.11227,-0.61079 0.16992,-0.99804 0.20876,-1.40212 0.1448,-2.59657 -0.18945,-3.58203 -0.33226,-0.99882 -0.97175,-1.8491 -1.91992,-2.55274 -0.9335,-0.71489 -2.19001,-1.31356 -3.76953,-1.79297 -1.57754,-0.49276 -3.50727,-0.93421 -5.78907,-1.32422 2.55221,0.40725 4.70136,0.59087 6.44922,0.55079 1.76254,-0.0513 3.1963,-0.29306 4.30078,-0.72657 1.11717,-0.43141 1.95013,-1.04677 2.49805,-1.8457 0.56061,-0.79683 0.92287,-1.74908 1.08789,-2.85742 0.18888,-1.26859 0.10565,-2.41138 -0.25,-3.42774 -0.34296,-1.01426 -0.93964,-1.89854 -1.78906,-2.65429 -0.83474,-0.76702 -1.91371,-1.40992 -3.24024,-1.92969 -1.31384,-0.51768 -2.83991,-0.92036 -4.57812,-1.20703 z m 16.23047,4.27734 c 0.68514,0.113 1.26834,0.29739 1.75,0.55469 0.48365,0.24394 0.85683,0.6143 1.1211,1.10937 0.27894,0.48381 0.44448,1.11985 0.49609,1.90821 0.0536,0.775 -0.009,1.75684 -0.18555,2.94531 -0.17694,1.18846 -0.40529,2.15699 -0.68554,2.9043 -0.27827,0.73394 -0.62112,1.29161 -1.0293,1.67578 -0.39549,0.38626 -0.85923,0.62495 -1.39258,0.71484 -0.53335,0.0899 -1.14299,0.0778 -1.82812,-0.0352 z m -536.97461,0.23242 -8.55468,1.81055 0.29492,1.55078 c 0.54138,-0.11462 1.03113,-0.19717 1.46679,-0.24805 0.43314,-0.0641 0.80902,-0.0815 1.12891,-0.0527 0.31736,0.0155 0.56657,0.0859 0.74805,0.21289 0.19153,0.11111 0.30988,0.28687 0.35547,0.52539 l 2.69726,14.11133 -15.36133,-14.26367 -16.50586,3.49414 0.29688,1.55078 2.24805,-0.47656 2.91211,2.69336 3.96093,20.73046 c 0.0456,0.23852 -0.0367,0.45594 -0.24804,0.65235 -0.19877,0.19374 -0.48623,0.37106 -0.86133,0.5332 -0.37511,0.16214 -0.81562,0.31776 -1.32422,0.4668 -0.49855,0.13312 -1.01916,0.25843 -1.56055,0.37305 l 0.30078,1.57031 9.82032,-2.08008 -0.30079,-1.57031 c -0.55397,0.11728 -1.07813,0.21551 -1.57421,0.29297 -0.49862,0.0642 -0.93805,0.094 -1.31836,0.0918 -0.37026,-0.0181 -0.6794,-0.0836 -0.92383,-0.19726 -0.23184,-0.11637 -0.37122,-0.30725 -0.42188,-0.57227 l -3.51953,-18.40625 18.57617,18.13477 9.57618,-2.02735 -4.86328,-25.4414 c -0.0937,-0.49029 0.15507,-0.87402 0.74414,-1.15039 0.58906,-0.27638 1.42504,-0.53053 2.50781,-0.75977 z"
         transform="matrix(0.55635603,0,0,0.58743599,-32.238214,-404.97424)"
         id="text206"
         inkscape:connector-curvature="0" />
    </g>
    <g
       id="g60"
       transform="matrix(0.11678873,0,0,0.10276228,79.809888,143.84452)"
       style="fill:#fddb3a;fill-opacity:1">
      <path
         id="path56"
         d="M 338.5,32.78 H 271 V 0 h -30 v 32.78 h -67.5 v 36.336 h 165 z"
         inkscape:connector-curvature="0"
         style="fill:#fddb3a;fill-opacity:1" />
      <path
         id="path58"
         d="M 512,482 H 486 V 136.831 h -91.562 v 60.609 h 44.145 v 30 h -44.145 v 30.003 h 44.145 v 30 h -44.145 v 30.004 h 44.145 v 30 h -44.145 v 30.004 h 44.145 v 30 H 394.438 V 482 h -29 V 98.116 H 146.562 V 482 h -29 V 407.451 H 74.097 v -30 h 43.464 V 347.447 H 74.097 v -30 h 43.464 V 287.443 H 74.097 v -30 h 43.464 V 227.44 H 74.097 v -30 h 43.464 V 136.831 H 26.001 V 482 H 0 v 30 H 512 Z M 305.5,197.78 v 30 h -32 v -30 z m -32,-30 v -30 h 32 v 30 z m 32,90 v 30 h -32 v -30 z m 0,60 v 30 h -32 v -30 z m 0,60 v 30 h -32 v -30 z m -99,-30 v -30 h 32 v 30 z m 32,30 v 30 h -32 v -30 z m -32,-90 v -30 h 32 v 30 z m 0,-60 v -30 h 32 v 30 z m 0,-60 v -30 h 32 v 30 z m 34.5,269 h 30 V 482 h -30 z"
         inkscape:connector-curvature="0"
         style="fill:#fddb3a;fill-opacity:1" />
    </g>
  </g>
</svg>
